<mxfile host="app.diagrams.net" modified="2023-10-22T17:58:00.306Z" agent="Mozilla/5.0 (X11; Linux x86_64) AppleWebKit/537.36 (KHTML, like Gecko) Chrome/118.0.0.0 Safari/537.36" version="22.0.6" etag="_d_IFRGVjeNZ0nG1ME_N" type="github">
  <diagram name="Page-1" id="uK7nJxlSClSwMFuHAh30">
    <mxGraphModel>
      <root>
        <mxCell id="0" />
        <mxCell id="1" parent="0" />
      </root>
    </mxGraphModel>
  </diagram>
</mxfile>
